<svg width="24" height="24" viewBox="0 0 24 24" fill="none" xmlns="http://www.w3.org/2000/svg">
<path d="M2.14836 0.387942L11.9988 10.2394L21.8491 0.387942C22.0861 0.171118 22.3975 0.0540724 22.7186 0.061187C23.0396 0.0683016 23.3456 0.199028 23.5726 0.426134C23.7997 0.653239 23.9304 0.95921 23.9375 1.28031C23.9447 1.6014 23.8276 1.91286 23.6108 2.14981L13.7654 12.0013L23.6133 21.8502C23.7336 21.9649 23.8298 22.1024 23.8962 22.2548C23.9626 22.4072 23.9978 22.5713 23.9999 22.7375C24.002 22.9037 23.9708 23.0686 23.9082 23.2226C23.8456 23.3766 23.7528 23.5165 23.6354 23.6341C23.518 23.7517 23.3782 23.8447 23.2243 23.9075C23.0705 23.9703 22.9056 24.0017 22.7394 23.9999C22.5732 23.9981 22.4091 23.9631 22.2566 23.8969C22.1042 23.8307 21.9665 23.7347 21.8516 23.6146L11.9988 13.7656L2.14836 23.6171C1.91144 23.8339 1.60001 23.9509 1.27895 23.9438C0.957886 23.9367 0.651949 23.806 0.424868 23.5789C0.197787 23.3518 0.0670737 23.0458 0.0599599 22.7247C0.052846 22.4036 0.169879 22.0921 0.386679 21.8552L10.2371 12.0038L0.386679 2.14981C0.266366 2.03514 0.17019 1.89757 0.103801 1.74519C0.0374129 1.59281 0.00215294 1.4287 9.47512e-05 1.26249C-0.00196344 1.09629 0.0292222 0.931353 0.0918168 0.777377C0.154411 0.623401 0.247152 0.483493 0.364588 0.365877C0.482024 0.248262 0.621785 0.155313 0.775656 0.0924932C0.929527 0.0296738 1.0944 -0.00174783 1.26059 7.49988e-05C1.42678 0.00189783 1.59092 0.0369286 1.74338 0.103108C1.89584 0.169287 2.03353 0.26528 2.14836 0.385443V0.387942Z" fill="#E52E39"/>
</svg>
