<svg width="37" height="37" viewBox="0 0 37 37" fill="none" xmlns="http://www.w3.org/2000/svg">
<path d="M18.1547 14.2963C15.7875 14.2963 13.8557 16.1954 13.8557 18.5225C13.8557 20.8497 15.7875 22.7488 18.1547 22.7488C20.5219 22.7488 22.4537 20.8497 22.4537 18.5225C22.4537 16.1954 20.5219 14.2963 18.1547 14.2963ZM31.0485 18.5225C31.0485 16.7724 31.0647 15.0382 30.9647 13.2913C30.8647 11.2622 30.3938 9.46135 28.8845 7.97757C27.372 6.49062 25.5433 6.0309 23.4793 5.93262C21.6991 5.83433 19.9349 5.85019 18.1579 5.85019C16.3777 5.85019 14.6136 5.83433 12.8366 5.93262C10.7725 6.0309 8.94067 6.49379 7.43134 7.97757C5.91878 9.46452 5.45115 11.2622 5.35117 13.2913C5.25119 15.0414 5.26732 16.7756 5.26732 18.5225C5.26732 20.2695 5.25119 22.0069 5.35117 23.7538C5.45115 25.7829 5.92201 27.5837 7.43134 29.0675C8.9439 30.5545 10.7725 31.0142 12.8366 31.1125C14.6168 31.2108 16.3809 31.1949 18.1579 31.1949C19.9382 31.1949 21.7023 31.2108 23.4793 31.1125C25.5433 31.0142 27.3752 30.5513 28.8845 29.0675C30.3971 27.5806 30.8647 25.7829 30.9647 23.7538C31.0679 22.0069 31.0485 20.2726 31.0485 18.5225ZM18.1547 25.0252C14.4942 25.0252 11.5401 22.121 11.5401 18.5225C11.5401 14.9241 14.4942 12.0199 18.1547 12.0199C21.8152 12.0199 24.7693 14.9241 24.7693 18.5225C24.7693 22.121 21.8152 25.0252 18.1547 25.0252ZM25.0402 13.2723C24.1856 13.2723 23.4954 12.5938 23.4954 11.7536C23.4954 10.9134 24.1856 10.2349 25.0402 10.2349C25.8949 10.2349 26.585 10.9134 26.585 11.7536C26.5853 11.9531 26.5455 12.1507 26.468 12.3351C26.3904 12.5194 26.2766 12.6869 26.1331 12.828C25.9896 12.9691 25.8192 13.0809 25.6317 13.1572C25.4442 13.2334 25.2432 13.2725 25.0402 13.2723Z" fill="#5E5E5E"/>
</svg>
