<svg width="37" height="41" viewBox="0 0 37 41" fill="none" xmlns="http://www.w3.org/2000/svg">
<g clip-path="url(#clip0_12_148)">
<path d="M13.5923 29.7501C12.918 29.0025 12.9177 27.7906 13.5923 27.0428L19.5455 20.4473L13.562 13.816C12.8877 13.0689 12.8873 11.8565 13.562 11.1087C13.8998 10.7354 14.3416 10.5486 14.7836 10.5486C15.2256 10.5486 15.6674 10.7354 16.0042 11.1094L22.9474 18.8025C23.0508 18.8762 23.1493 18.9606 23.2395 19.0605C23.5843 19.4427 23.7503 19.9456 23.7423 20.4471C23.7499 20.9476 23.5843 21.4514 23.2391 21.8331C23.1492 21.9334 23.0506 22.0174 22.9474 22.0908L16.0355 29.75C15.3609 30.4972 14.2672 30.4978 13.5923 29.7501Z" fill="#545454"/>
</g>
<defs>
<clipPath id="clip0_12_148">
<rect width="41" height="37" fill="white" transform="translate(37) rotate(90)"/>
</clipPath>
</defs>
</svg>
