<svg width="34" height="34" viewBox="0 0 34 34" fill="none" xmlns="http://www.w3.org/2000/svg">
<path d="M17 0C7.62646 0 0 7.62581 0 17C0 26.3742 7.62646 34 17 34C26.3735 34 34 26.3742 34 17C34 7.62581 26.3735 0 17 0ZM17 32.6923C8.34765 32.6923 1.30769 25.6523 1.30769 17C1.30769 8.34765 8.34765 1.30769 17 1.30769C25.6523 1.30769 32.6923 8.34765 32.6923 17C32.6923 25.6523 25.6523 32.6923 17 32.6923Z" fill="#F42632"/>
<path d="M25.1731 16.3462H17.6539V9.15385C17.6539 8.79227 17.3609 8.5 17 8.5C16.6391 8.5 16.3462 8.79227 16.3462 9.15385V16.3462H8.82694C8.46602 16.3462 8.1731 16.6384 8.1731 17C8.1731 17.3616 8.46602 17.6538 8.82694 17.6538H16.3462V25.5C16.3462 25.8616 16.6391 26.1538 17 26.1538C17.3609 26.1538 17.6539 25.8616 17.6539 25.5V17.6538H25.1731C25.534 17.6538 25.8269 17.3616 25.8269 17C25.8269 16.6384 25.534 16.3462 25.1731 16.3462Z" fill="#F42632"/>
</svg>
