<svg width="37" height="41" viewBox="0 0 37 41" fill="none" xmlns="http://www.w3.org/2000/svg">
<g clip-path="url(#clip0_12_144)">
<path d="M23.4077 11.2499C24.0819 11.9975 24.0823 13.2094 23.4077 13.9572L17.4545 20.5527L23.438 27.184C24.1123 27.9311 24.1127 29.1435 23.438 29.8913C23.1002 30.2646 22.6585 30.4514 22.2164 30.4514C21.7744 30.4514 21.3326 30.2646 20.9958 29.8906L14.0526 22.1975C13.9492 22.1238 13.8507 22.0394 13.7605 21.9395C13.4157 21.5573 13.2497 21.0544 13.2577 20.5529C13.2501 20.0524 13.4157 19.5486 13.7609 19.1669C13.8508 19.0666 13.9494 18.9826 14.0526 18.9092L20.9645 11.25C21.6391 10.5028 22.7328 10.5022 23.4077 11.2499Z" fill="#545454"/>
</g>
<defs>
<clipPath id="clip0_12_144">
<rect width="41" height="37" fill="white" transform="translate(0 41) rotate(-90)"/>
</clipPath>
</defs>
</svg>
