<svg width="38" height="37" viewBox="0 0 38 37" fill="none" xmlns="http://www.w3.org/2000/svg">
<g clip-path="url(#clip0_12_12)">
<path fill-rule="evenodd" clip-rule="evenodd" d="M36.7599 8.93942C37.0137 8.11882 36.7599 7.51465 35.5445 7.51465H31.5313C30.51 7.51465 30.0391 8.03616 29.7838 8.61178C29.7838 8.61178 27.7428 13.4151 24.8518 16.5352C23.9161 17.44 23.4911 17.727 22.9805 17.727C22.7252 17.727 22.3414 17.44 22.3414 16.6179V8.93942C22.3414 7.9535 22.0601 7.51465 21.2101 7.51465H14.8991C14.2615 7.51465 13.8778 7.97154 13.8778 8.40588C13.8778 9.3392 15.3241 9.55562 15.4724 12.1827V17.8908C15.4724 19.1428 15.2385 19.3697 14.7278 19.3697C13.3672 19.3697 10.0572 14.5438 8.09269 9.02208C7.71201 7.94749 7.32675 7.51465 6.3009 7.51465H2.28464C1.13802 7.51465 0.908691 8.03616 0.908691 8.61178C0.908691 9.63678 2.26936 14.7287 7.24572 21.4633C10.5633 26.0622 15.2339 28.5556 19.4886 28.5556C22.0403 28.5556 22.3552 28.0025 22.3552 27.0481V23.5719C22.3552 22.4642 22.5968 22.2433 23.4055 22.2433C24.0018 22.2433 25.0215 22.5319 27.4034 24.7487C30.1248 27.3773 30.5727 28.5556 32.1046 28.5556H36.1178C37.2644 28.5556 37.8393 28.0025 37.509 26.9084C37.1452 25.8203 35.8457 24.2407 34.1227 22.3665C33.187 21.2995 31.7835 20.1497 31.357 19.5741C30.7623 18.8362 30.932 18.507 31.357 17.8503C31.357 17.8503 36.2493 11.1983 36.7584 8.93942H36.7599Z" fill="#5E5E5E"/>
</g>
<defs>
<clipPath id="clip0_12_12">
<rect width="36.6921" height="36.0702" fill="white" transform="translate(0.908691)"/>
</clipPath>
</defs>
</svg>
