<svg width="40" height="40" viewBox="0 0 40 40" fill="none" xmlns="http://www.w3.org/2000/svg">
<path d="M31.25 16.25H23.75V18.75H31.25V16.25Z" fill="#F42632"/>
<path d="M16.25 26.25H13.75V23.75H11.25V26.25H8.75V28.75H11.25V31.25H13.75V28.75H16.25V26.25Z" fill="#F42632"/>
<path d="M16.25 11.25H8.75V13.75H16.25V11.25Z" fill="#F42632"/>
<path d="M31.25 21.25H23.75V23.75H31.25V21.25Z" fill="#F42632"/>
<path d="M33.75 3.75H6.25C5.58719 3.75076 4.95175 4.0144 4.48307 4.48307C4.0144 4.95175 3.75076 5.58719 3.75 6.25V33.75C3.75076 34.4128 4.0144 35.0483 4.48307 35.5169C4.95175 35.9856 5.58719 36.2492 6.25 36.25H33.75C34.4128 36.2492 35.0483 35.9856 35.5169 35.5169C35.9856 35.0483 36.2492 34.4128 36.25 33.75V6.25C36.2492 5.58719 35.9856 4.95175 35.5169 4.48307C35.0483 4.0144 34.4128 3.75076 33.75 3.75ZM18.75 6.25V18.75H6.25V6.25H18.75ZM6.25 21.25H18.75V33.75H6.25V21.25ZM21.25 33.75V6.25H33.75V33.75H21.25Z" fill="#F42632"/>
</svg>
