<svg width="40" height="40" viewBox="0 0 40 40" fill="none" xmlns="http://www.w3.org/2000/svg">
<g clip-path="url(#clip0_12_241)">
<path d="M21.7948 2.01591L21.7512 1.99232C22.2834 1.01026 23.2126 0.30246 24.3011 0.050546C25.3894 -0.201641 26.5352 0.0261795 27.4449 0.674836C29.3506 2.03382 29.7952 4.68949 28.4362 6.59492C28.3815 6.67152 28.3187 6.7419 28.2484 6.80478L27.4269 7.5404H37.7989C38.5039 7.5404 39.0756 8.11199 39.0756 8.8171V16.5946C39.0756 17.2997 38.5041 17.8713 37.7989 17.8713H37.524V38.7733C37.524 39.4784 36.9524 40.05 36.2473 40.05H3.75311C3.04801 40.05 2.47641 39.4784 2.47641 38.7733V17.8713H2.20143C1.49633 17.8713 0.924731 17.2997 0.924731 16.5946V8.81697C0.924731 8.11186 1.49633 7.54027 2.20143 7.54027H12.5732L11.7517 6.80464L11.7517 6.80462C11.6817 6.74191 11.6187 6.67155 11.564 6.5948L11.5639 6.59478C10.2051 4.68935 10.6498 2.03369 12.5552 0.674706C13.4646 0.0260424 14.6104 -0.201636 15.699 0.0504084L21.7948 2.01591ZM21.7948 2.01591L21.7512 1.99232L20.0001 5.22499L21.7948 2.01591ZM24.8768 2.53803L24.8769 2.53802C24.9803 2.51402 25.0839 2.5023 25.1864 2.5023C25.4621 2.5023 25.7297 2.58769 25.9623 2.75358L25.9914 2.71287L25.9623 2.75358C26.3302 3.01594 26.5736 3.40541 26.6483 3.85122C26.716 4.25649 26.6368 4.66315 26.4248 5.01015L23.5989 7.5404H21.6498L23.9964 3.20853L23.9525 3.18471L23.9965 3.20851C24.1828 2.86421 24.4952 2.62633 24.8768 2.53803ZM14.0379 2.75372L14.0379 2.75371C14.3567 2.52631 14.7416 2.44973 15.1234 2.53816L15.1234 2.53816C15.5048 2.62633 15.8173 2.86433 16.0038 3.20866L18.3504 7.5404H16.4013L13.5753 5.01015C13.3633 4.66328 13.2841 4.25636 13.3518 3.85134L13.3025 3.84309L13.3518 3.85134C13.4263 3.40582 13.6699 3.01608 14.0379 2.75372ZM36.5221 15.318H3.478V10.0938H36.5221V15.318ZM15.3851 37.4967H5.02968V17.8714H15.3851V37.4967ZM17.9385 37.4967V17.8714H22.0616V37.4967H17.9385ZM34.9706 37.4967H24.6152V17.8714H34.9706V37.4967Z" fill="#F42632" stroke="#F42632" stroke-width="0.1"/>
</g>
<defs>
<clipPath id="clip0_12_241">
<rect width="40" height="40" fill="white"/>
</clipPath>
</defs>
</svg>
