<svg width="40" height="40" viewBox="0 0 40 40" fill="none" xmlns="http://www.w3.org/2000/svg">
<path d="M20 0C8.9407 0 0 8.9407 0 20C0 31.0593 8.9407 40 20 40C31.0593 40 40 31.0675 40 20C40 8.93252 31.0675 0 20 0ZM21.7014 36.5971V35.7464C21.7014 34.8139 20.9325 34.045 20 34.045C19.0675 34.045 18.2986 34.8139 18.2986 35.7464V36.5971C10.4622 35.7955 4.2045 29.5378 3.41104 21.7096H4.17178C5.10429 21.7096 5.87321 20.9407 5.87321 20.0082C5.87321 19.0757 5.10429 18.3067 4.17178 18.3067H3.41104C4.21268 10.4703 10.4703 4.21268 18.2986 3.41922V4.17178C18.2986 5.10429 19.0675 5.87321 20 5.87321C20.9325 5.87321 21.7014 5.10429 21.7014 4.17178V3.41104C29.5378 4.21268 35.7955 10.4703 36.589 18.2986H35.7464C34.8139 18.2986 34.045 19.0675 34.045 20C34.045 20.9325 34.8139 21.7014 35.7464 21.7014H36.5971C35.7955 29.5378 29.5378 35.7955 21.7014 36.5971Z" fill="#F42632"/>
<path d="M20 10.2168C19.0675 10.2168 18.2986 10.9857 18.2986 11.9182V19.4029L10.5521 28.9407C9.955 29.7096 10.1268 30.724 10.8057 31.3211C11.7546 32.0164 12.7607 31.4929 13.1043 31.0675L21.366 21.0225C21.5378 20.7689 21.7096 20.4254 21.7096 20V11.9182C21.7014 10.9775 20.9407 10.2168 20 10.2168Z" fill="#F42632"/>
</svg>
