<svg width="37" height="36" viewBox="0 0 37 36" fill="none" xmlns="http://www.w3.org/2000/svg">
<path d="M33.4685 10.8149C33.2832 10.1173 32.9222 9.48569 32.424 8.98726C31.9117 8.47351 31.2837 8.10601 30.5995 7.91945C28.0387 7.20709 17.7789 7.20709 17.7789 7.20709C13.5018 7.15573 9.22567 7.38161 4.97475 7.88347C4.29048 8.08381 3.66373 8.45952 3.15025 8.97719C2.64572 9.48951 2.28028 10.1213 2.08937 10.8135C1.63079 13.4208 1.40797 16.0682 1.42394 18.7199C1.40757 21.3693 1.62984 24.0159 2.08937 26.6264C2.27619 27.3157 2.64027 27.9446 3.14616 28.4526C3.65206 28.9606 4.28204 29.3276 4.97475 29.5219C7.56968 30.2328 17.7789 30.2328 17.7789 30.2328C22.0615 30.2842 26.3431 30.0583 30.5995 29.5564C31.2837 29.3699 31.9117 29.0024 32.424 28.4886C32.9221 27.9903 33.2826 27.3586 33.4671 26.6609C33.9377 24.0546 34.1665 21.4062 34.1503 18.753C34.1857 16.0887 33.9572 13.4277 33.4685 10.8135V10.8149ZM14.5172 23.6474V13.7939L23.0533 18.7214L14.5172 23.6474Z" fill="#545454"/>
</svg>
